<?xml version="1.0" encoding="utf-8"?>
<!-- Generator: Adobe Illustrator 26.0.0, SVG Export Plug-In . SVG Version: 6.00 Build 0)  -->
<svg version="1.1" id="Calque_1" xmlns="http://www.w3.org/2000/svg" xmlns:xlink="http://www.w3.org/1999/xlink" x="0px" y="0px"
	 viewBox="0 0 377.95 78.47" style="enable-background:new 0 0 377.95 78.47;" xml:space="preserve">
<style type="text/css">
	.st0{fill:#434199;}
	.st1{fill:#FFFFFF;}
</style>
<g>
	<g>
		<path class="st0" d="M31.26,14.16c1.34-2.56,2.53-4.83,3.71-7.12c0.83-1.62,1.67-3.23,2.45-4.87c0.68-1.43,1.79-2.16,3.34-2.15
			c9.12,0.05,18.26-0.25,27.36,0.29c13.82,0.81,24.63,11.86,25.67,25.53c1.05,13.75-8.03,26.13-21.52,29.36
			c-0.54,0.13-1.07,0.29-1.86,0.5c6.8,7.55,13.46,14.95,20.5,22.76c-2.14,0-3.83,0.01-5.51,0c-3.96-0.03-7.93,0.01-11.89-0.16
			c-0.98-0.04-2.2-0.54-2.85-1.24c-7.05-7.66-14.02-15.39-20.97-23.14c-2.66-2.97-2.82-6.16-0.67-9.25c1.45-2.08,3.54-2.8,5.95-2.82
			c3.6-0.03,7.2,0.09,10.8-0.03c5.95-0.2,10.42-2.95,12.79-8.43c2.32-5.37,1.3-10.43-2.6-14.77c-2.92-3.26-6.79-4.46-11.11-4.45
			c-10.54,0.02-21.08,0.01-31.61,0.01C32.68,14.16,32.13,14.16,31.26,14.16z"/>
		<path class="st1" d="M7.93,78.45c7.37-14.62,14.53-28.83,21.79-43.23c-10.02,0-19.81,0-29.72,0c0.11-0.41,0.14-0.72,0.27-0.97
			c2.01-3.87,4.03-7.74,6.04-11.61c0.55-1.07,1.33-1.63,2.59-1.63c19.04,0.02,38.07-0.01,57.11,0.03c4.05,0.01,6.99,2.93,7.09,6.82
			c0.09,3.85-2.6,6.94-6.6,7.07c-6.1,0.2-12.2,0.18-18.3,0.11c-1.89-0.02-2.91,0.64-3.74,2.31c-6.45,12.98-13,25.9-19.46,38.87
			c-0.81,1.62-1.83,2.3-3.64,2.26C16.99,78.39,12.62,78.45,7.93,78.45z"/>
	</g>
	<g>
		<path class="st1" d="M123.31,38.44v7.76h-13.39v-7.76H123.31z"/>
		<path class="st1" d="M157.73,46.24V35.75c2.4,0,3.6-0.92,3.6-2.75c0-1.68-0.92-2.52-2.75-2.52c-1.86,0-2.78,1.15-2.78,3.46v26.13
			H143.9v-24.9c0-2.58,0.26-4.69,0.78-6.34c0.52-1.65,1.4-3.19,2.65-4.61c1.41-1.58,3.16-2.83,5.27-3.75
			c2.11-0.92,4.29-1.38,6.53-1.38c4.06,0,7.48,1.37,10.24,4.1c2.76,2.73,4.15,6.12,4.15,10.17c0,3.93-1.24,7.11-3.72,9.55
			c-2.27,2.25-5.68,3.37-10.25,3.37L157.73,46.24z"/>
		<path class="st1" d="M192.68,30.24c4.14,0,7.69,1.49,10.65,4.47c2.96,2.98,4.44,6.55,4.44,10.71c0,4.22-1.5,7.81-4.5,10.78
			c-3,2.97-6.62,4.45-10.85,4.45c-4.24,0-7.86-1.49-10.87-4.47c-3.01-2.98-4.51-6.57-4.51-10.77c0-4.28,1.5-7.88,4.51-10.8
			C184.56,31.7,188.27,30.24,192.68,30.24z M192.39,41.05c-1.17,0-2.17,0.42-2.99,1.27s-1.23,1.89-1.23,3.12
			c0,1.21,0.41,2.25,1.25,3.11c0.83,0.86,1.82,1.29,2.97,1.29c1.17,0,2.17-0.43,3-1.29c0.83-0.86,1.25-1.89,1.25-3.11
			c0-1.23-0.41-2.27-1.23-3.12S193.58,41.05,192.39,41.05z"/>
		<path class="st1" d="M229.57,30.56v11.72c-0.76-0.43-1.46-0.64-2.08-0.64c-1.99,0-2.99,1.52-2.99,4.57v13.86h-10.96V44.1
			c0-4.22,1.15-7.58,3.46-10.09c2.3-2.51,5.38-3.76,9.23-3.76C227.09,30.24,228.2,30.35,229.57,30.56z"/>
		<path class="st1" d="M243.74,20.07v11.19h4.92v11.57h-4.92c0,2.32,0.37,3.93,1.1,4.8s2.08,1.32,4.03,1.32v11.51
			c-0.57,0.02-0.99,0.03-1.26,0.03c-2.48,0-4.82-0.58-7.02-1.73c-2.2-1.15-3.96-2.71-5.29-4.69c-1.68-2.52-2.52-5.86-2.52-10.02
			V20.07H243.74z"/>
		<path class="st1" d="M271.11,37.33v11.48h-4.89v11.25h-10.96V35.25c0-2.79,0.48-5.18,1.44-7.15c1.21-2.52,3.05-4.57,5.52-6.17
			c2.47-1.59,5.04-2.39,7.72-2.39l1.17,0.03v11.48c-0.25-0.02-0.44-0.03-0.56-0.03c-1.39,0-2.46,0.46-3.21,1.38
			c-0.75,0.92-1.13,2.23-1.13,3.93v1H271.11z"/>
		<path class="st1" d="M290.97,30.24c4.14,0,7.69,1.49,10.65,4.47c2.96,2.98,4.44,6.55,4.44,10.71c0,4.22-1.5,7.81-4.5,10.78
			c-3,2.97-6.62,4.45-10.85,4.45s-7.86-1.49-10.87-4.47c-3.01-2.98-4.51-6.57-4.51-10.77c0-4.28,1.5-7.88,4.51-10.8
			C282.84,31.7,286.55,30.24,290.97,30.24z M290.68,41.05c-1.17,0-2.17,0.42-2.99,1.27s-1.23,1.89-1.23,3.12
			c0,1.21,0.42,2.25,1.25,3.11c0.83,0.86,1.82,1.29,2.97,1.29c1.17,0,2.17-0.43,3-1.29c0.83-0.86,1.25-1.89,1.25-3.11
			c0-1.23-0.41-2.27-1.23-3.12S291.87,41.05,290.68,41.05z"/>
		<path class="st1" d="M322.78,20.07v39.99h-10.96V20.07H322.78z"/>
		<path class="st1" d="M341.36,30.85v29.21H330.4V30.85H341.36z M335.91,17.82c1.48,0,2.77,0.52,3.85,1.57
			c1.08,1.04,1.63,2.28,1.63,3.71c0,1.52-0.51,2.77-1.54,3.75c-1.03,0.98-2.34,1.46-3.94,1.46s-2.92-0.49-3.94-1.46
			c-1.03-0.98-1.54-2.23-1.54-3.75c0-1.43,0.54-2.66,1.63-3.71C333.14,18.34,334.42,17.82,335.91,17.82z"/>
		<path class="st1" d="M362.86,30.24c4.14,0,7.69,1.49,10.65,4.47c2.96,2.98,4.44,6.55,4.44,10.71c0,4.22-1.5,7.81-4.5,10.78
			c-3,2.97-6.62,4.45-10.85,4.45s-7.86-1.49-10.87-4.47c-3.01-2.98-4.51-6.57-4.51-10.77c0-4.28,1.5-7.88,4.51-10.8
			C354.73,31.7,358.45,30.24,362.86,30.24z M362.57,41.05c-1.17,0-2.17,0.42-2.99,1.27s-1.23,1.89-1.23,3.12
			c0,1.21,0.42,2.25,1.25,3.11c0.83,0.86,1.82,1.29,2.97,1.29c1.17,0,2.17-0.43,3-1.29c0.83-0.86,1.25-1.89,1.25-3.11
			c0-1.23-0.41-2.27-1.23-3.12S363.76,41.05,362.57,41.05z"/>
	</g>
</g>
<rect x="41.84" y="210.22" style="fill:none;" width="183.32" height="15.83"/>
</svg>
